<svg width="64" height="64" viewBox="0 0 64 64" xmlns="http://www.w3.org/2000/svg">
  <path d="M52.4,33.2c-0.3-1.6-0.8-3.2-1.5-4.7l-7.7-4.4c-0.6-0.4-1-1-1-1.7v-8.8c0-0.7,0.4-1.4,1-1.7l7.7-4.4c0.7-0.4,1.2-1,1.5-1.7C53.6,4,52.8,2.4,51.2,1.6l-8.8-5.1c-0.6-0.4-1.4-0.4-2.1,0l-7.7,4.4c-0.6,0.4-1.4,0.4-2.1,0L22.8,0.9c-0.6-0.4-1.4-0.4-2.1,0l-8.8,5.1c-1.6,0.9-2.4,2.5-2,4.1c0.3,1.6,0.8,3.2,1.5,4.7l7.7,4.4c0.6,0.4,1,1,1,1.7v8.8c0,0.7-0.4,1.4-1,1.7l-7.7,4.4c-0.7,0.4-1.2,1-1.5,1.7c-0.4,1.6,0.3,3.2,1.9,4.1l8.8,5.1c0.6,0.4,1.4,0.4,2.1,0l7.7-4.4c0.6-0.4,1.4-0.4,2.1,0l7.7,4.4c0.6,0.4,1.4,0.4,2.1,0l8.8-5.1C52.1,36.4,52.9,34.8,52.4,33.2z M32,42c-5.5,0-10-4.5-10-10s4.5-10,10-10s10,4.5,10,10S37.5,42,32,42z" fill="#2563EB"/>
</svg>